<?xml version="1.0" standalone="no"?><!DOCTYPE svg PUBLIC "-//W3C//DTD SVG 1.1//EN" "http://www.w3.org/Graphics/SVG/1.1/DTD/svg11.dtd"><svg t="1586319781419" class="icon" viewBox="0 0 1024 1024" version="1.1" xmlns="http://www.w3.org/2000/svg" p-id="3693" xmlns:xlink="http://www.w3.org/1999/xlink" width="200" height="200"><defs><style type="text/css"></style></defs><path d="M817.4 772.6l-38.5-38.5c19.6-25.2 31.5-56.7 31.5-91 0-81.8-66.5-148.3-148.3-148.3s-148.3 66.5-148.3 148.3S580.2 791.4 662 791.4c30.2 0 58.3-9.1 81.7-24.7l39.7 39.7c4.7 4.7 10.8 7 17 7 6.1 0 12.3-2.3 17-7 9.3-9.2 9.3-24.4 0-33.8zM662 743.5c-55.3 0-100.4-45-100.4-100.4 0-55.3 45-100.4 100.4-100.4 55.3 0 100.4 45 100.4 100.4-0.1 55.4-45.1 100.4-100.4 100.4z" fill="#d4237a" p-id="3694"></path><path d="M518.3 787.7H264.1c-13.7 0-24.9-11.2-24.9-24.9V380.2c20.3 20.6 47.9 32.4 76.7 32.4h0.3c30.7-0.1 60.1-13.4 80.6-36.6l12.1-13.7 25.5 23.6c20 18.6 46.3 28.8 73.3 28.8 3 0 6.1-0.1 9.1-0.4 29.5-2.5 56.8-17.3 75.4-40.6l11.9 10.9c22.8 20.9 53.4 31.1 84 27.8 21.9-2.3 42.4-11.4 58.9-25.6v72.7c0 13.2 10.7 24 24 24s24-10.7 24-24V263.7c0-40.2-32.7-72.9-72.9-72.9h-458c-40.2 0-72.9 32.7-72.9 72.9v499.1c0 40.2 32.7 72.9 72.9 72.9h254.2c13.2 0 24-10.7 24-24s-10.7-24-24-24zM264.1 238.8h458c13.7 0 24.9 11.2 24.9 24.9V310l-21.1 29.6c-10.3 14.4-25.5 23.3-42.7 25.1-17.1 1.8-33.7-3.7-46.5-15.5l-24-22c-6.8-6.3-16-9.4-25.2-8.6-9.2 0.8-17.7 5.5-23.3 12.9l-8.7 11.3c-10.5 13.8-25.7 22.2-42.6 23.6-16.9 1.5-33.1-4.2-45.7-15.8l-36.8-34.1c-6.6-6.1-15-9.1-24-8.7-8.9 0.4-17.1 4.4-23.1 11.1L361 344.1c-11.6 13.1-27.5 20.4-44.8 20.4h-0.2c-17.2 0-33.1-7.2-44.7-20.2l-32-35.9v-44.9c-0.1-13.6 11.1-24.7 24.8-24.7z" fill="#d4237a" p-id="3695"></path></svg>