<?xml version="1.0" standalone="no"?><!DOCTYPE svg PUBLIC "-//W3C//DTD SVG 1.1//EN" "http://www.w3.org/Graphics/SVG/1.1/DTD/svg11.dtd"><svg t="1586319732197" class="icon" viewBox="0 0 1024 1024" version="1.1" xmlns="http://www.w3.org/2000/svg" p-id="2809" xmlns:xlink="http://www.w3.org/1999/xlink" width="200" height="200"><defs><style type="text/css"></style></defs><path d="M782.08 896H245.44C180.16 896 128 852.8 128 797.44v-294.08c0-15.68 16-14.4 36.16-14.4s32 0 32 14.4v294.08c0 22.4 26.88 41.6 51.84 41.6h534.08a48.96 48.96 0 0 0 49.92-41.6V512a27.52 27.52 0 0 1 32-27.84 32 32 0 0 1 35.84 27.84v285.44A109.12 109.12 0 0 1 782.08 896z" p-id="2810" fill="#d4237a"></path><path d="M779.84 556.8a187.2 187.2 0 0 1-134.72-54.08A183.68 183.68 0 0 1 512 556.8a186.88 186.88 0 0 1-134.72-54.08 184 184 0 0 1-136.32 54.08 175.68 175.68 0 0 1-164.16-99.2 134.4 134.4 0 0 1-4.48-101.76s32-58.56 92.16-171.52A106.88 106.88 0 0 1 263.36 128h496.32a109.44 109.44 0 0 1 98.88 54.08c59.84 110.08 89.6 165.44 89.6 167.04a134.08 134.08 0 0 1-2.24 108.48 181.12 181.12 0 0 1-166.08 99.2z m3.84-52.16a108.48 108.48 0 0 0 104.32-64 78.4 78.4 0 0 0 8-53.76l-91.84-180.48a47.68 47.68 0 0 0-40.64-21.44H262.4a40.96 40.96 0 0 0-40.96 19.2l-88.32 177.6a68.48 68.48 0 0 0 4.48 53.12 111.04 111.04 0 0 0 106.56 64 108.48 108.48 0 0 0 104.32-64 35.2 35.2 0 0 1 35.52-21.76 32 32 0 0 1 24.64 24 111.36 111.36 0 0 0 104.32 60.16 110.72 110.72 0 0 0 104.32-62.4 32 32 0 0 1 36.48-19.2 46.4 46.4 0 0 1 24.64 26.24 113.28 113.28 0 0 0 105.28 62.72z" p-id="2811" fill="#d4237a"></path><path d="M642.88 484.48a32 32 0 0 1-32-32v-85.12l-27.2-180.8a32 32 0 0 1 27.2-35.84 32 32 0 0 1 35.84 26.88l26.88 182.72v92.8a32 32 0 0 1-30.72 31.36z m-264.96 0a32 32 0 0 1-32-32v-92.8l27.2-182.72a32 32 0 1 1 64 8.96l-26.88 180.8v85.76a32 32 0 0 1-32.32 32z m213.12 304.96h-154.24a17.92 17.92 0 0 1-18.88-16.32V729.6a14.08 14.08 0 0 1 15.36-13.44h56.64v-27.2a48.32 48.32 0 0 1-32-43.52 51.2 51.2 0 0 1 54.08-48 51.2 51.2 0 0 1 54.72 48 48.32 48.32 0 0 1-32 43.52v27.2h56.64a14.08 14.08 0 0 1 15.36 13.44v43.52a14.72 14.72 0 0 1-15.68 16.32z" p-id="2812" fill="#d4237a"></path></svg>